<svg xmlns="http://www.w3.org/2000/svg">
  <symbol id="search">
    <svg xmlns="http://www.w3.org/2000/svg" xml:space="preserve" width="20px" height="20px" version="1.1"
         style="shape-rendering:geometricPrecision; text-rendering:geometricPrecision; image-rendering:optimizeQuality; fill-rule:evenodd; clip-rule:evenodd"
         viewBox="0 0 20 20">
      <path id="icon-search-shape" class="fil0"
            d="M13.15 8.74c-0.38,2.69 -2.69,4.91 -5.83,4.49 -2.58,-0.35 -4.87,-2.71 -4.45,-5.82 0.35,-2.61 2.85,-4.88 5.81,-4.44 2.56,0.38 4.92,2.7 4.47,5.77zm-0.81 5.01c0.75,0.48 4.99,5.24 5.46,5.25 0.39,-0.11 1.15,-0.84 1.2,-1.28 -0.06,-0.34 -4.53,-4.52 -5.23,-5.37 0.16,-0.54 1.71,-2.12 1.3,-5.22 -0.76,-5.8 -7.98,-8.18 -12,-4.06 -5.11,5.22 0.02,13.75 6.97,11.78 1.42,-0.41 1.74,-0.89 2.3,-1.1z"/>
    </svg>

  </symbol>
  <symbol id="burger">
    <svg class="toggle__burger-icon toggle__burger-icon--open" id="toggle__burger-icon" x="0px" y="0px"
         viewBox="0 0 24 18" style="enable-background:new 0 0 24 18;" xml:space="preserve">
      <rect y="16" width="24" height="2"/>
      <rect y="8" width="24" height="2"/>
      <rect width="24" height="2"/>
    </svg>
  </symbol>

  <symbol id="close">
    <svg version="1.1" x="0px" y="0px" viewBox="0 0 18 18" style="enable-background:new 0 0 18 18;"
         xml:space="preserve">
      <polygon points="18,1.3 16.7,0 9,7.7 1.3,0 0,1.3 7.7,9 0,16.7 1.3,18 9,10.3 16.7,18 18,16.7 10.3,9 "/>
    </svg>
  </symbol>
  <symbol id="icon-search">
    <svg xmlns="http://www.w3.org/2000/svg" viewBox="0 0 20 20">
      <path d="M3.7 1.97a7.02 7.02 0 0 1 10.32 9.38l5.45 6.26c.24.28.21.7-.06.94l-1.08.94a.67.67 0 0 1-.94-.06L12
          13.24A7.03 7.03 0 0 1 3.7 1.97zm1.46 1.67a4.8 4.8 0 1 1 6.32 7.23 4.8 4.8 0 0 1-6.32-7.23z"/>
    </svg>
  </symbol>
</svg>
